<svg xmlns="http://www.w3.org/2000/svg" xmlns:xlink="http://www.w3.org/1999/xlink" id="processonSvg1000" viewBox="170.0 52.875 798.0 455.25" width="798.0" height="455.25"><defs id="ProcessOnDefs1001"><marker id="ProcessOnMarker1029" markerUnits="userSpaceOnUse" orient="auto" markerWidth="16.23606797749979" markerHeight="10.550836550532098" viewBox="-1.0 -1.3763819204711736 16.23606797749979 10.550836550532098" refX="-1.0" refY="3.8990363547948754"><path id="ProcessOnPath1030" d="M12.0 3.8990363547948754L0.0 7.798072709589751V0.0Z" stroke="#323232" stroke-width="2.0" fill="#323232" transform="matrix(1.0,0.0,0.0,1.0,0.0,0.0)"/></marker><marker id="ProcessOnMarker1036" markerUnits="userSpaceOnUse" orient="auto" markerWidth="16.23606797749979" markerHeight="10.550836550532098" viewBox="-1.0 -1.3763819204711736 16.23606797749979 10.550836550532098" refX="-1.0" refY="3.8990363547948754"><path id="ProcessOnPath1037" d="M12.0 3.8990363547948754L0.0 7.798072709589751V0.0Z" stroke="#323232" stroke-width="2.0" fill="#323232" transform="matrix(1.0,0.0,0.0,1.0,0.0,0.0)"/></marker><marker id="ProcessOnMarker1043" markerUnits="userSpaceOnUse" orient="auto" markerWidth="16.23606797749979" markerHeight="10.550836550532098" viewBox="-1.0 -1.3763819204711736 16.23606797749979 10.550836550532098" refX="-1.0" refY="3.8990363547948754"><path id="ProcessOnPath1044" d="M12.0 3.8990363547948754L0.0 7.798072709589751V0.0Z" stroke="#323232" stroke-width="2.0" fill="#323232" transform="matrix(1.0,0.0,0.0,1.0,0.0,0.0)"/></marker><marker id="ProcessOnMarker1050" markerUnits="userSpaceOnUse" orient="auto" markerWidth="16.23606797749979" markerHeight="10.550836550532098" viewBox="-1.0 -1.3763819204711736 16.23606797749979 10.550836550532098" refX="-1.0" refY="3.8990363547948754"><path id="ProcessOnPath1051" d="M12.0 3.8990363547948754L0.0 7.798072709589751V0.0Z" stroke="#323232" stroke-width="2.0" fill="#323232" transform="matrix(1.0,0.0,0.0,1.0,0.0,0.0)"/></marker><marker id="ProcessOnMarker1057" markerUnits="userSpaceOnUse" orient="auto" markerWidth="16.23606797749979" markerHeight="10.550836550532098" viewBox="-1.0 -1.3763819204711736 16.23606797749979 10.550836550532098" refX="-1.0" refY="3.8990363547948754"><path id="ProcessOnPath1058" d="M12.0 3.8990363547948754L0.0 7.798072709589751V0.0Z" stroke="#323232" stroke-width="2.0" fill="#323232" transform="matrix(1.0,0.0,0.0,1.0,0.0,0.0)"/></marker><marker id="ProcessOnMarker1064" markerUnits="userSpaceOnUse" orient="auto" markerWidth="16.23606797749979" markerHeight="10.550836550532098" viewBox="-1.0 -1.3763819204711736 16.23606797749979 10.550836550532098" refX="-1.0" refY="3.8990363547948754"><path id="ProcessOnPath1065" d="M12.0 3.8990363547948754L0.0 7.798072709589751V0.0Z" stroke="#323232" stroke-width="2.0" fill="#323232" transform="matrix(1.0,0.0,0.0,1.0,0.0,0.0)"/></marker></defs><g id="ProcessOnG1002"><path id="ProcessOnPath1003" d="M170.0 52.875H968.0V508.125H170.0V52.875Z" fill="none"/><g id="ProcessOnG1004"><g id="ProcessOnG1005" transform="matrix(1.0,0.0,0.0,1.0,190.0,111.0)" opacity="1.0"><path id="ProcessOnPath1006" d="M0.0 0.0L216.0 0.0L216.0 339.0L0.0 339.0Z" stroke="#323232" stroke-width="2.0" stroke-dasharray="none" opacity="1.0" fill="#ffffff"/><g id="ProcessOnG1007" transform="matrix(1.0,0.0,0.0,1.0,10.0,160.125)"><text id="ProcessOnText1008" fill="#000000" font-size="15" x="97.0" y="15.375" font-family="微软雅黑" font-weight="normal" font-style="normal" text-decoration="none" family="微软雅黑" text-anchor="middle" size="15">需要监听的Class</text></g></g><g id="ProcessOnG1009" transform="matrix(1.0,0.0,0.0,1.0,570.0,106.0)" opacity="1.0"><path id="ProcessOnPath1010" d="M0.0 0.0L378.0 0.0L378.0 339.0L0.0 339.0Z" stroke="#323232" stroke-width="2.0" stroke-dasharray="none" opacity="1.0" fill="#ffffff"/></g><g id="ProcessOnG1011" transform="matrix(1.0,0.0,0.0,1.0,755.0,134.0)" opacity="1.0"><path id="ProcessOnPath1012" d="M0.0 0.0L118.0 0.0L118.0 36.0L0.0 36.0Z" stroke="#323232" stroke-width="2.0" stroke-dasharray="none" opacity="1.0" fill="#ffffff"/><g id="ProcessOnG1013" transform="matrix(1.0,0.0,0.0,1.0,10.0,9.875)"><text id="ProcessOnText1014" fill="#000000" font-size="13" x="48.0" y="13.325" font-family="微软雅黑" font-weight="normal" font-style="normal" text-decoration="none" family="微软雅黑" text-anchor="middle" size="13">register</text></g></g><g id="ProcessOnG1015" transform="matrix(1.0,0.0,0.0,1.0,755.0,380.0)" opacity="1.0"><path id="ProcessOnPath1016" d="M0.0 0.0L118.0 0.0L118.0 36.0L0.0 36.0Z" stroke="#323232" stroke-width="2.0" stroke-dasharray="none" opacity="1.0" fill="#ffffff"/><g id="ProcessOnG1017" transform="matrix(1.0,0.0,0.0,1.0,10.0,9.875)"><text id="ProcessOnText1018" fill="#000000" font-size="13" x="48.0" y="13.325" font-family="微软雅黑" font-weight="normal" font-style="normal" text-decoration="none" family="微软雅黑" text-anchor="middle" size="13">unregister</text></g></g><g id="ProcessOnG1019" transform="matrix(1.0,0.0,0.0,1.0,755.0,238.0)" opacity="1.0"><path id="ProcessOnPath1020" d="M0.0 0.0L118.0 0.0L118.0 85.0L0.0 85.0Z" stroke="#323232" stroke-width="2.0" stroke-dasharray="none" opacity="1.0" fill="#ffffff"/><g id="ProcessOnG1021" transform="matrix(1.0,0.0,0.0,1.0,10.0,32.5)"><text id="ProcessOnText1022" fill="#000000" font-size="16" x="48.0" y="16.4" font-family="微软雅黑" font-weight="normal" font-style="normal" text-decoration="none" family="微软雅黑" text-anchor="middle" size="16">EventBus</text></g></g><g id="ProcessOnG1023" transform="matrix(1.0,0.0,0.0,1.0,592.0,262.5)" opacity="1.0"><path id="ProcessOnPath1024" d="M0.0 0.0L63.0 0.0L63.0 36.0L0.0 36.0Z" stroke="#323232" stroke-width="2.0" stroke-dasharray="none" opacity="1.0" fill="#ffffff"/><g id="ProcessOnG1025" transform="matrix(1.0,0.0,0.0,1.0,10.0,9.875)"><text id="ProcessOnText1026" fill="#000000" font-size="13" x="20.5" y="13.325" font-family="微软雅黑" font-weight="normal" font-style="normal" text-decoration="none" family="微软雅黑" text-anchor="middle" size="13">post</text></g></g><g id="ProcessOnG1027"><path id="ProcessOnPath1028" d="M298.0 111.0L298.0 81.0L814.0 81.0L814.0 118.76393202250021" stroke="#323232" stroke-width="2.0" stroke-dasharray="none" fill="none" marker-end="url(#ProcessOnMarker1029)"/><g id="ProcessOnG1031" transform="matrix(1.0,0.0,0.0,1.0,559.8819660112501,72.875)"><path id="ProcessOnPath1032" d="M0 0H26.0V16.25H0Z" fill="#fff" transform="matrix(1.0,0.0,0.0,1.0,-13.0,0.0)"/><text id="ProcessOnText1033" fill="#000000" font-size="13" x="0.0" y="13.325" font-family="微软雅黑" font-weight="normal" font-style="normal" text-decoration="none" family="微软雅黑" text-anchor="middle" size="13">注册</text></g></g><g id="ProcessOnG1034"><path id="ProcessOnPath1035" d="M814.0 416.0L814.0 480.0L298.0 480.0L298.0 465.2360679774998" stroke="#323232" stroke-width="2.0" stroke-dasharray="none" fill="none" marker-end="url(#ProcessOnMarker1036)"/><g id="ProcessOnG1038" transform="matrix(1.0,0.0,0.0,1.0,580.6180339887499,471.875)"><path id="ProcessOnPath1039" d="M0 0H26.0V16.25H0Z" fill="#fff" transform="matrix(1.0,0.0,0.0,1.0,-13.0,0.0)"/><text id="ProcessOnText1040" fill="#000000" font-size="13" x="0.0" y="13.325" font-family="微软雅黑" font-weight="normal" font-style="normal" text-decoration="none" family="微软雅黑" text-anchor="middle" size="13">注销</text></g></g><g id="ProcessOnG1041"><path id="ProcessOnPath1042" d="M814.0 170.0L814.0 204.0L814.0 204.0L814.0 222.7639320225002" stroke="#323232" stroke-width="2.0" stroke-dasharray="none" fill="none" marker-end="url(#ProcessOnMarker1043)"/><g id="ProcessOnG1045" transform="matrix(1.0,0.0,0.0,1.0,814.0,188.25696601125009)"><path id="ProcessOnPath1046" d="M0 0H78.0V16.25H0Z" fill="#fff" transform="matrix(1.0,0.0,0.0,1.0,-39.0,0.0)"/><text id="ProcessOnText1047" fill="#000000" font-size="13" x="0.0" y="13.325" font-family="微软雅黑" font-weight="normal" font-style="normal" text-decoration="none" family="微软雅黑" text-anchor="middle" size="13">添加类、方法</text></g></g><g id="ProcessOnG1048"><path id="ProcessOnPath1049" d="M814.0 380.0L814.0 351.5L814.0 351.5L814.0 338.2360679774998" stroke="#323232" stroke-width="2.0" stroke-dasharray="none" fill="none" marker-end="url(#ProcessOnMarker1050)"/><g id="ProcessOnG1052" transform="matrix(1.0,0.0,0.0,1.0,814.0,350.99303398874986)"><path id="ProcessOnPath1053" d="M0 0H78.0V16.25H0Z" fill="#fff" transform="matrix(1.0,0.0,0.0,1.0,-39.0,0.0)"/><text id="ProcessOnText1054" fill="#000000" font-size="13" x="0.0" y="13.325" font-family="微软雅黑" font-weight="normal" font-style="normal" text-decoration="none" family="微软雅黑" text-anchor="middle" size="13">移除类、方法</text></g></g><g id="ProcessOnG1055"><path id="ProcessOnPath1056" d="M755.0 280.5L705.0 280.5L705.0 280.5L670.2360679774998 280.5" stroke="#323232" stroke-width="2.0" stroke-dasharray="none" fill="none" marker-end="url(#ProcessOnMarker1057)"/><g id="ProcessOnG1059" transform="matrix(1.0,0.0,0.0,1.0,712.6180339887499,272.375)"><path id="ProcessOnPath1060" d="M0 0H52.0V16.25H0Z" fill="#fff" transform="matrix(1.0,0.0,0.0,1.0,-26.0,0.0)"/><text id="ProcessOnText1061" fill="#000000" font-size="13" x="0.0" y="13.325" font-family="微软雅黑" font-weight="normal" font-style="normal" text-decoration="none" family="微软雅黑" text-anchor="middle" size="13">发送数据</text></g></g><g id="ProcessOnG1062"><path id="ProcessOnPath1063" d="M592.0 280.5L499.0 280.5L499.0 280.5L421.2360679774998 280.5" stroke="#323232" stroke-width="2.0" stroke-dasharray="none" fill="none" marker-end="url(#ProcessOnMarker1064)"/><g id="ProcessOnG1066" transform="matrix(1.0,0.0,0.0,1.0,506.61803398874986,272.375)"><path id="ProcessOnPath1067" d="M0 0H91.0V16.25H0Z" fill="#fff" transform="matrix(1.0,0.0,0.0,1.0,-45.5,0.0)"/><text id="ProcessOnText1068" fill="#000000" font-size="13" x="0.0" y="13.325" font-family="微软雅黑" font-weight="normal" font-style="normal" text-decoration="none" family="微软雅黑" text-anchor="middle" size="13">反射对应的对象</text></g></g></g></g></svg>