<svg xmlns="http://www.w3.org/2000/svg" xmlns:xlink="http://www.w3.org/1999/xlink" id="processonSvg1000" viewBox="4.0 25.0 850.0 1035.0" width="850.0" height="1035.0"><defs id="ProcessOnDefs1001"><marker id="ProcessOnMarker1015" markerUnits="userSpaceOnUse" orient="auto" markerWidth="16.23606797749979" markerHeight="10.550836550532098" viewBox="-1.0 -1.3763819204711736 16.23606797749979 10.550836550532098" refX="-1.0" refY="3.8990363547948754"><path id="ProcessOnPath1016" d="M12.0 3.8990363547948754L0.0 7.798072709589751V0.0Z" stroke="#323232" stroke-width="2.0" fill="#323232" transform="matrix(1.0,0.0,0.0,1.0,0.0,0.0)"/></marker><marker id="ProcessOnMarker1023" markerUnits="userSpaceOnUse" orient="auto" markerWidth="16.23606797749979" markerHeight="10.550836550532098" viewBox="-1.0 -1.3763819204711736 16.23606797749979 10.550836550532098" refX="-1.0" refY="3.8990363547948754"><path id="ProcessOnPath1024" d="M12.0 3.8990363547948754L0.0 7.798072709589751V0.0Z" stroke="#323232" stroke-width="2.0" fill="#323232" transform="matrix(1.0,0.0,0.0,1.0,0.0,0.0)"/></marker><marker id="ProcessOnMarker1039" markerUnits="userSpaceOnUse" orient="auto" markerWidth="16.23606797749979" markerHeight="10.550836550532098" viewBox="-1.0 -1.3763819204711736 16.23606797749979 10.550836550532098" refX="-1.0" refY="3.8990363547948754"><path id="ProcessOnPath1040" d="M12.0 3.8990363547948754L0.0 7.798072709589751V0.0Z" stroke="#323232" stroke-width="2.0" fill="#323232" transform="matrix(1.0,0.0,0.0,1.0,0.0,0.0)"/></marker><marker id="ProcessOnMarker1043" markerUnits="userSpaceOnUse" orient="auto" markerWidth="16.23606797749979" markerHeight="10.550836550532098" viewBox="-1.0 -1.3763819204711736 16.23606797749979 10.550836550532098" refX="-1.0" refY="3.8990363547948754"><path id="ProcessOnPath1044" d="M12.0 3.8990363547948754L0.0 7.798072709589751V0.0Z" stroke="#323232" stroke-width="2.0" fill="#323232" transform="matrix(1.0,0.0,0.0,1.0,0.0,0.0)"/></marker><marker id="ProcessOnMarker1047" markerUnits="userSpaceOnUse" orient="auto" markerWidth="16.23606797749979" markerHeight="10.550836550532098" viewBox="-1.0 -1.3763819204711736 16.23606797749979 10.550836550532098" refX="-1.0" refY="3.8990363547948754"><path id="ProcessOnPath1048" d="M12.0 3.8990363547948754L0.0 7.798072709589751V0.0Z" stroke="#323232" stroke-width="2.0" fill="#323232" transform="matrix(1.0,0.0,0.0,1.0,0.0,0.0)"/></marker><marker id="ProcessOnMarker1056" markerUnits="userSpaceOnUse" orient="auto" markerWidth="16.23606797749979" markerHeight="10.550836550532098" viewBox="-1.0 -1.3763819204711736 16.23606797749979 10.550836550532098" refX="-1.0" refY="3.8990363547948754"><path id="ProcessOnPath1057" d="M12.0 3.8990363547948754L0.0 7.798072709589751V0.0Z" stroke="#323232" stroke-width="2.0" fill="#323232" transform="matrix(1.0,0.0,0.0,1.0,0.0,0.0)"/></marker><marker id="ProcessOnMarker1066" markerUnits="userSpaceOnUse" orient="auto" markerWidth="16.23606797749979" markerHeight="10.550836550532098" viewBox="-1.0 -1.3763819204711736 16.23606797749979 10.550836550532098" refX="-1.0" refY="3.8990363547948754"><path id="ProcessOnPath1067" d="M12.0 3.8990363547948754L0.0 7.798072709589751V0.0Z" stroke="#323232" stroke-width="2.0" fill="#323232" transform="matrix(1.0,0.0,0.0,1.0,0.0,0.0)"/></marker><marker id="ProcessOnMarker1076" markerUnits="userSpaceOnUse" orient="auto" markerWidth="16.23606797749979" markerHeight="10.550836550532098" viewBox="-1.0 -1.3763819204711736 16.23606797749979 10.550836550532098" refX="-1.0" refY="3.8990363547948754"><path id="ProcessOnPath1077" d="M12.0 3.8990363547948754L0.0 7.798072709589751V0.0Z" stroke="#323232" stroke-width="2.0" fill="#323232" transform="matrix(1.0,0.0,0.0,1.0,0.0,0.0)"/></marker><marker id="ProcessOnMarker1085" markerUnits="userSpaceOnUse" orient="auto" markerWidth="16.23606797749979" markerHeight="10.550836550532098" viewBox="-1.0 -1.3763819204711736 16.23606797749979 10.550836550532098" refX="-1.0" refY="3.8990363547948754"><path id="ProcessOnPath1086" d="M12.0 3.8990363547948754L0.0 7.798072709589751V0.0Z" stroke="#323232" stroke-width="2.0" fill="#323232" transform="matrix(1.0,0.0,0.0,1.0,0.0,0.0)"/></marker><marker id="ProcessOnMarker1104" markerUnits="userSpaceOnUse" orient="auto" markerWidth="16.23606797749979" markerHeight="10.550836550532098" viewBox="-1.0 -1.3763819204711736 16.23606797749979 10.550836550532098" refX="-1.0" refY="3.8990363547948754"><path id="ProcessOnPath1105" d="M12.0 3.8990363547948754L0.0 7.798072709589751V0.0Z" stroke="#323232" stroke-width="2.0" fill="#323232" transform="matrix(1.0,0.0,0.0,1.0,0.0,0.0)"/></marker></defs><g id="ProcessOnG1002"><path id="ProcessOnPath1003" d="M4.0 25.0H854.0V1060.0H4.0V25.0Z" fill="none"/><g id="ProcessOnG1004"><g id="ProcessOnG1005" transform="matrix(1.0,0.0,0.0,1.0,291.0,45.0)" opacity="1.0"><path id="ProcessOnPath1006" d="M16.666666666666668 0.0L83.33333333333333 0.0C105.55555555555556 0.0 105.55555555555556 50.0 83.33333333333333 50.0L16.666666666666668 50.0C-5.555555555555556 50.0 -5.555555555555556 0.0 16.666666666666668 0.0Z" stroke="#323232" stroke-width="2.0" stroke-dasharray="none" opacity="1.0" fill="#ffffff"/><g id="ProcessOnG1007" transform="matrix(1.0,0.0,0.0,1.0,10.0,13.125)"><text id="ProcessOnText1008" fill="#000000" font-size="19" x="39.0" y="19.475" font-family="微软雅黑" font-weight="normal" font-style="normal" text-decoration="none" family="微软雅黑" text-anchor="middle" size="19">Zygota</text></g></g><g id="ProcessOnG1009" transform="matrix(1.0,0.0,0.0,1.0,214.0,131.0)" opacity="1.0"><path id="ProcessOnPath1010" d="M0.0 0.0L254.0 0.0L254.0 53.0L0.0 53.0Z" stroke="#323232" stroke-width="2.0" stroke-dasharray="none" opacity="1.0" fill="#ffffff"/><g id="ProcessOnG1011" transform="matrix(1.0,0.0,0.0,1.0,10.0,15.875)"><text id="ProcessOnText1012" fill="#000000" font-size="17" x="116.0" y="17.425" font-family="微软雅黑" font-weight="normal" font-style="normal" text-decoration="none" family="微软雅黑" text-anchor="middle" size="17">SystemServer (系统服务进程)</text></g></g><g id="ProcessOnG1013"><path id="ProcessOnPath1014" d="M341.0 95.0L341.0 113.0L341.0 113.0L341.0 115.76393202250021" stroke="#323232" stroke-width="2.0" stroke-dasharray="none" fill="none" marker-end="url(#ProcessOnMarker1015)"/></g><g id="ProcessOnG1017" transform="matrix(1.0,0.0,0.0,1.0,130.0,240.0)" opacity="1.0"><path id="ProcessOnPath1018" d="M0.0 0.0L422.0 0.0L422.0 51.0L0.0 51.0Z" stroke="#323232" stroke-width="2.0" stroke-dasharray="none" opacity="1.0" fill="#ffffff"/><g id="ProcessOnG1019" transform="matrix(1.0,0.0,0.0,1.0,10.0,11.75)"><text id="ProcessOnText1020" fill="#000000" font-size="22" x="200.0" y="22.55" font-family="微软雅黑" font-weight="normal" font-style="normal" text-decoration="none" family="微软雅黑" text-anchor="middle" size="22">SystemServer.run()</text></g></g><g id="ProcessOnG1021"><path id="ProcessOnPath1022" d="M341.0 184.0L341.0 212.0L341.0 212.0L341.0 224.7639320225002" stroke="#323232" stroke-width="2.0" stroke-dasharray="none" fill="none" marker-end="url(#ProcessOnMarker1023)"/></g><g id="ProcessOnG1025" transform="matrix(1.0,0.0,0.0,1.0,32.0,357.0)" opacity="1.0"><path id="ProcessOnPath1026" d="M0.0 0.0L190.0 0.0L190.0 34.0L0.0 34.0Z" stroke="#323232" stroke-width="2.0" stroke-dasharray="none" opacity="1.0" fill="#ffffff"/><g id="ProcessOnG1027" transform="matrix(1.0,0.0,0.0,1.0,10.0,8.875)"><text id="ProcessOnText1028" fill="#000000" font-size="13" x="84.0" y="13.325" font-family="微软雅黑" font-weight="normal" font-style="normal" text-decoration="none" family="微软雅黑" text-anchor="middle" size="13">startBootstrapServices()</text></g></g><g id="ProcessOnG1029" transform="matrix(1.0,0.0,0.0,1.0,259.5,357.0)" opacity="1.0"><path id="ProcessOnPath1030" d="M0.0 0.0L163.0 0.0L163.0 34.0L0.0 34.0Z" stroke="#323232" stroke-width="2.0" stroke-dasharray="none" opacity="1.0" fill="#ffffff"/><g id="ProcessOnG1031" transform="matrix(1.0,0.0,0.0,1.0,10.0,8.25)"><text id="ProcessOnText1032" fill="#000000" font-size="14" x="70.5" y="14.350000000000001" font-family="微软雅黑" font-weight="normal" font-style="normal" text-decoration="none" family="微软雅黑" text-anchor="middle" size="14">startCoreServices()</text></g></g><g id="ProcessOnG1033" transform="matrix(1.0,0.0,0.0,1.0,474.0,357.0)" opacity="1.0"><path id="ProcessOnPath1034" d="M0.0 0.0L154.0 0.0L154.0 34.0L0.0 34.0Z" stroke="#323232" stroke-width="2.0" stroke-dasharray="none" opacity="1.0" fill="#ffffff"/><g id="ProcessOnG1035" transform="matrix(1.0,0.0,0.0,1.0,10.0,8.25)"><text id="ProcessOnText1036" fill="#000000" font-size="14" x="66.0" y="14.350000000000001" font-family="微软雅黑" font-weight="normal" font-style="normal" text-decoration="none" family="微软雅黑" text-anchor="middle" size="14">startOtherServices()</text></g></g><g id="ProcessOnG1037"><path id="ProcessOnPath1038" d="M341.0 291.0L341.0 324.0L127.0 324.0L127.0 341.7639320225002" stroke="#323232" stroke-width="2.0" stroke-dasharray="none" fill="none" marker-end="url(#ProcessOnMarker1039)"/></g><g id="ProcessOnG1041"><path id="ProcessOnPath1042" d="M341.0 291.0L341.0 324.0L551.0 324.0L551.0 341.7639320225002" stroke="#323232" stroke-width="2.0" stroke-dasharray="none" fill="none" marker-end="url(#ProcessOnMarker1043)"/></g><g id="ProcessOnG1045"><path id="ProcessOnPath1046" d="M341.0 291.0L341.0 324.0L341.0 324.0L341.0 341.7639320225002" stroke="#323232" stroke-width="2.0" stroke-dasharray="none" fill="none" marker-end="url(#ProcessOnMarker1047)"/></g><g id="ProcessOnG1049" transform="matrix(1.0,0.0,0.0,1.0,24.0,453.0)" opacity="1.0"><path id="ProcessOnPath1050" d="M0.0 0.0L206.0 0.0L206.0 65.0L0.0 65.0Z" stroke="#323232" stroke-width="2.0" stroke-dasharray="none" opacity="1.0" fill="#ffffff"/><g id="ProcessOnG1051" transform="matrix(1.0,0.0,0.0,1.0,10.0,13.75)"><text id="ProcessOnText1052" fill="#000000" font-size="15" x="92.0" y="15.375" font-family="微软雅黑" font-weight="normal" font-style="normal" text-decoration="none" family="微软雅黑" text-anchor="middle" size="15">启动了mActivityManager</text><text id="ProcessOnText1053" fill="#000000" font-size="15" x="92.0" y="34.125" font-family="微软雅黑" font-weight="normal" font-style="normal" text-decoration="none" family="微软雅黑" text-anchor="middle" size="15">Service</text></g></g><g id="ProcessOnG1054"><path id="ProcessOnPath1055" d="M127.0 391.0L127.0 422.0L127.0 422.0L127.0 437.7639320225002" stroke="#323232" stroke-width="2.0" stroke-dasharray="none" fill="none" marker-end="url(#ProcessOnMarker1056)"/></g><g id="ProcessOnG1058" transform="matrix(1.0,0.0,0.0,1.0,391.0,443.25)" opacity="1.0"><path id="ProcessOnPath1059" d="M0.0 0.0L320.0 0.0L320.0 84.5L0.0 84.5Z" stroke="#323232" stroke-width="2.0" stroke-dasharray="none" opacity="1.0" fill="#ffffff"/><g id="ProcessOnG1060" transform="matrix(1.0,0.0,0.0,1.0,10.0,16.0)"><text id="ProcessOnText1061" fill="#000000" font-size="14" x="149.0" y="14.350000000000001" font-family="微软雅黑" font-weight="normal" font-style="normal" text-decoration="none" family="微软雅黑" text-anchor="middle" size="14">mActivityManagerService.systemReady创建</text><text id="ProcessOnText1062" fill="#000000" font-size="14" x="149.0" y="31.85" font-family="微软雅黑" font-weight="normal" font-style="normal" text-decoration="none" family="微软雅黑" text-anchor="middle" size="14">线程去执行startSystemUi(context)</text><text id="ProcessOnText1063" fill="#000000" font-size="14" x="149.0" y="49.35" font-family="微软雅黑" font-weight="normal" font-style="normal" text-decoration="none" family="微软雅黑" text-anchor="middle" size="14">将启动systemUI。</text></g></g><g id="ProcessOnG1064"><path id="ProcessOnPath1065" d="M551.0 391.0L551.0 417.125L551.0 417.125L551.0 428.0139320225002" stroke="#323232" stroke-width="2.0" stroke-dasharray="none" fill="none" marker-end="url(#ProcessOnMarker1066)"/></g><g id="ProcessOnG1068" transform="matrix(1.0,0.0,0.0,1.0,268.0,581.0)" opacity="1.0"><path id="ProcessOnPath1069" d="M0.0 0.0L566.0 0.0L566.0 71.0L0.0 71.0Z" stroke="#323232" stroke-width="2.0" stroke-dasharray="none" opacity="1.0" fill="#ffffff"/><g id="ProcessOnG1070" transform="matrix(1.0,0.0,0.0,1.0,10.0,9.25)"><text id="ProcessOnText1071" fill="#000000" font-size="14" x="272.0" y="14.350000000000001" font-family="微软雅黑" font-weight="normal" font-style="normal" text-decoration="none" family="微软雅黑" text-anchor="middle" size="14">( startSystemUI )</text><text id="ProcessOnText1072" fill="#000000" font-size="14" x="272.0" y="31.85" font-family="微软雅黑" font-weight="normal" font-style="normal" text-decoration="none" family="微软雅黑" text-anchor="middle" size="14">通过intent.setComponent(new ComponentName("com.android.systemui",</text><text id="ProcessOnText1073" fill="#000000" font-size="14" x="272.0" y="49.35" font-family="微软雅黑" font-weight="normal" font-style="normal" text-decoration="none" family="微软雅黑" text-anchor="middle" size="14">"com.android.systemui.SystemUIService"));</text></g></g><g id="ProcessOnG1074"><path id="ProcessOnPath1075" d="M551.0 527.75L551.0 554.375L551.0 554.375L551.0 565.7639320225002" stroke="#323232" stroke-width="2.0" stroke-dasharray="none" fill="none" marker-end="url(#ProcessOnMarker1076)"/></g><g id="ProcessOnG1078" transform="matrix(1.0,0.0,0.0,1.0,268.0,689.0)" opacity="1.0"><path id="ProcessOnPath1079" d="M0.0 0.0L566.0 0.0L566.0 66.0L0.0 66.0Z" stroke="#323232" stroke-width="2.0" stroke-dasharray="none" opacity="1.0" fill="#ffffff"/><g id="ProcessOnG1080" transform="matrix(1.0,0.0,0.0,1.0,10.0,15.5)"><text id="ProcessOnText1081" fill="#000000" font-size="14" x="272.0" y="14.350000000000001" font-family="微软雅黑" font-weight="normal" font-style="normal" text-decoration="none" family="微软雅黑" text-anchor="middle" size="14">( 进入SystemUIService )</text><text id="ProcessOnText1082" fill="#000000" font-size="14" x="272.0" y="31.85" font-family="微软雅黑" font-weight="normal" font-style="normal" text-decoration="none" family="微软雅黑" text-anchor="middle" size="14">onCreate方法中获得SystemUIApplication对象并调用其startServicesIfNeeded方法：</text></g></g><g id="ProcessOnG1083"><path id="ProcessOnPath1084" d="M551.0 652.0L551.0 670.5L551.0 670.5L551.0 673.7639320225002" stroke="#323232" stroke-width="2.0" stroke-dasharray="none" fill="none" marker-end="url(#ProcessOnMarker1085)"/></g><g id="ProcessOnG1087" transform="matrix(1.0,0.0,0.0,1.0,268.0,809.0)" opacity="1.0"><path id="ProcessOnPath1088" d="M0.0 0.0L566.0 0.0L566.0 231.0L0.0 231.0Z" stroke="#323232" stroke-width="2.0" stroke-dasharray="none" opacity="1.0" fill="#ffffff"/><g id="ProcessOnG1089" transform="matrix(1.0,0.0,0.0,1.0,10.0,10.5)"><text id="ProcessOnText1090" fill="#000000" font-size="14" x="0.0" y="14.350000000000001" font-family="微软雅黑" font-weight="normal" font-style="normal" text-decoration="none" family="微软雅黑" text-anchor="start" size="14">                       startServicesIfNeeded()循环start了很多Services。</text><text id="ProcessOnText1091" fill="#000000" font-size="14" x="0.0" y="31.85" font-family="微软雅黑" font-weight="normal" font-style="normal" text-decoration="none" family="微软雅黑" text-anchor="start" size="14">数组SERVICES的定义如下：</text><text id="ProcessOnText1092" fill="#000000" font-size="14" x="0.0" y="49.35" font-family="微软雅黑" font-weight="normal" font-style="normal" text-decoration="none" family="微软雅黑" text-anchor="start" size="14">            com.android.systemui.tuner.TunerService.class, //定制状态栏服务</text><text id="ProcessOnText1093" fill="#000000" font-size="14" x="0.0" y="66.85" font-family="微软雅黑" font-weight="normal" font-style="normal" text-decoration="none" family="微软雅黑" text-anchor="start" size="14">            com.android.systemui.keyguard.KeyguardViewMediator.class,//锁屏模块</text><text id="ProcessOnText1094" fill="#000000" font-size="14" x="0.0" y="84.35" font-family="微软雅黑" font-weight="normal" font-style="normal" text-decoration="none" family="微软雅黑" text-anchor="start" size="14">            com.android.systemui.recents.Recents.class,//最近应用</text><text id="ProcessOnText1095" fill="#000000" font-size="14" x="0.0" y="101.85" font-family="微软雅黑" font-weight="normal" font-style="normal" text-decoration="none" family="微软雅黑" text-anchor="start" size="14">            com.android.systemui.volume.VolumeUI.class,//全局音量控制</text><text id="ProcessOnText1096" fill="#000000" font-size="14" x="0.0" y="119.35" font-family="微软雅黑" font-weight="normal" font-style="normal" text-decoration="none" family="微软雅黑" text-anchor="start" size="14">            com.android.systemui.statusbar.SystemBars.class,//系统状态栏</text><text id="ProcessOnText1097" fill="#000000" font-size="14" x="0.0" y="136.85" font-family="微软雅黑" font-weight="normal" font-style="normal" text-decoration="none" family="微软雅黑" text-anchor="start" size="14">            com.android.systemui.usb.StorageNotification.class,//Storage存储通知</text><text id="ProcessOnText1098" fill="#000000" font-size="14" x="0.0" y="154.35" font-family="微软雅黑" font-weight="normal" font-style="normal" text-decoration="none" family="微软雅黑" text-anchor="start" size="14">            com.android.systemui.power.PowerUI.class,//电量管理相关</text><text id="ProcessOnText1099" fill="#000000" font-size="14" x="0.0" y="171.85" font-family="微软雅黑" font-weight="normal" font-style="normal" text-decoration="none" family="微软雅黑" text-anchor="start" size="14">            com.android.systemui.media.RingtonePlayer.class,//铃声播放</text><text id="ProcessOnText1100" fill="#000000" font-size="14" x="0.0" y="189.35" font-family="微软雅黑" font-weight="normal" font-style="normal" text-decoration="none" family="微软雅黑" text-anchor="start" size="14">            com.android.systemui.keyboard.KeyboardUI.class,//键盘相关</text><text id="ProcessOnText1101" fill="#000000" font-size="14" x="0.0" y="206.85" font-family="微软雅黑" font-weight="normal" font-style="normal" text-decoration="none" family="微软雅黑" text-anchor="start" size="14"></text></g></g><g id="ProcessOnG1102"><path id="ProcessOnPath1103" d="M551.0 755.0L551.0 782.0L551.0 782.0L551.0 793.7639320225002" stroke="#323232" stroke-width="2.0" stroke-dasharray="none" fill="none" marker-end="url(#ProcessOnMarker1104)"/></g></g></g></svg>